999
dxflib 3.17.0.0
  0
SECTION
  2
HEADER
  9
$ACADVER
  1
AC1015
  9
$HANDSEED
  5
FFFF
  0
ENDSEC
  0
SECTION
  2
TABLES
  0
TABLE
  2
VPORT
  5
8
100
AcDbSymbolTable
 70
1
  0
VPORT
  5
30
100
AcDbSymbolTableRecord
100
AcDbViewportTableRecord
  2
*Active
 70
0
 10
0.0
 20
0.0
 11
1.0
 21
1.0
 12
286.3055555555554861
 22
148.5
 13
0.0
 23
0.0
 14
10.0
 24
10.0
 15
10.0
 25
10.0
 16
0.0
 26
0.0
 36
1.0
 17
0.0
 27
0.0
 37
0.0
 40
297.0
 41
1.92798353909465
 42
50.0
 43
0.0
 44
0.0
 50
0.0
 51
0.0
 71
0
 72
100
 73
1
 74
3
 75
1
 76
1
 77
0
 78
0
281
0
 65
1
110
0.0
120
0.0
130
0.0
111
1.0
121
0.0
131
0.0
112
0.0
122
1.0
132
0.0
 79
0
146
0.0
  0
ENDTAB
  0
TABLE
  2
LTYPE
  5
5
100
AcDbSymbolTable
 70
2
  0
LTYPE
  5
15
100
AcDbSymbolTableRecord
100
AcDbLinetypeTableRecord
  2
BYLAYER
 70
0
  3

 72
65
 73
0
 40
0.0
  0
LTYPE
  5
16
100
AcDbSymbolTableRecord
100
AcDbLinetypeTableRecord
  2
CONTINUOUS
 70
0
  3
Solid line
 72
65
 73
0
 40
0.0
  0
ENDTAB
  0
TABLE
  2
LAYER
  5
2
100
AcDbSymbolTable
 70
1
  0
LAYER
  5
31
100
AcDbSymbolTableRecord
100
AcDbLayerTableRecord
  2
mainlayer
 70
0
 62
7
  6
CONTINUOUS
370
1
390
F
  0
ENDTAB
  0
TABLE
  2
STYLE
  5
3
100
AcDbSymbolTable
 70
1
  0
STYLE
  5
32
100
AcDbSymbolTableRecord
100
AcDbTextStyleTableRecord
  2
Standard
 70
0
 40
0.0
 41
1.0
 50
0.0
 71
0
 42
2.5
  3

  4

1001
ACAD
1000
txt
1071
0
  0
ENDTAB
  0
TABLE
  2
VIEW
  5
6
100
AcDbSymbolTable
 70
0
  0
ENDTAB
  0
TABLE
  2
UCS
  5
7
100
AcDbSymbolTable
 70
0
  0
ENDTAB
  0
TABLE
  2
APPID
  5
9
100
AcDbSymbolTable
 70
1
  0
APPID
  5
12
100
AcDbSymbolTableRecord
100
AcDbRegAppTableRecord
  2
ACAD
 70
0
  0
ENDTAB
  0
TABLE
  2
DIMSTYLE
  5
A
100
AcDbSymbolTable
 70
1
100
AcDbDimStyleTable
 71
0
  0
DIMSTYLE
105
27
100
AcDbSymbolTableRecord
100
AcDbDimStyleTableRecord
  2
Standard
 41
1.0
 42
1.0
 43
3.75
 44
1.0
 70
0
 73
0
 74
0
 77
1
 78
8
140
1.0
141
2.5
143
0.03937007874016
147
1.0
171
3
172
1
271
2
272
2
274
3
278
44
283
0
284
8
340
32
  0
ENDTAB
  0
DIMENSION
  5
33
100
AcDbEntity
  8
mainlayer
 62
7
370
2
 48
1.0
  6
BYLAYER
100
AcDbDimension
 10
3.2284999999999995
 20
-0.7748
 30
0.0
 11
0.0
 21
0.0
 31
0.0
 70
1
 71
8
 72
2
 41
1.0
 42
0.0
  1

  3
Standard
100
AcDbAlignedDimension
 13
0.0
 23
-0.0
 33
0.0
 14
6.456999999999999
 24
-0.0
 34
0.0
1001
ACAD
1000
DSTYLE
1002
{
1070
144
1040
1.0
1070
40
1040
0.1076166666666667
1002
}
  0
DIMENSION
  5
34
100
AcDbEntity
  8
mainlayer
 62
7
370
2
 48
1.0
  6
BYLAYER
100
AcDbDimension
 10
7.2317999999999998
 20
4.8425000000000002
 30
0.0
 11
0.0
 21
0.0
 31
0.0
 70
1
 71
8
 72
2
 41
1.0
 42
0.0
  1

  3
Standard
100
AcDbAlignedDimension
 13
6.456999999999999
 23
9.6850000000000005
 33
0.0
 14
6.456999999999999
 24
-0.0
 34
0.0
1001
ACAD
1000
DSTYLE
1002
{
1070
144
1040
1.0
1070
40
1040
0.1614166666666667
1002
}
  0
TABLE
  2
BLOCK_RECORD
  5
1
100
AcDbSymbolTable
 70
1
  0
BLOCK_RECORD
  5
1F
100
AcDbSymbolTableRecord
100
AcDbBlockTableRecord
  2
*Model_Space
340
22
  0
BLOCK_RECORD
  5
1B
100
AcDbSymbolTableRecord
100
AcDbBlockTableRecord
  2
*Paper_Space
340
1E
  0
BLOCK_RECORD
  5
23
100
AcDbSymbolTableRecord
100
AcDbBlockTableRecord
  2
*Paper_Space0
340
26
  0
ENDTAB
  0
ENDSEC
  0
SECTION
  2
ENTITIES
  0
LWPOLYLINE
  5
35
100
AcDbEntity
  8
mainlayer
 62
256
370
-1
 48
1.0
  6
BYLAYER
100
AcDbPolyline
 90
29
 70
1
 10
1.2790499999999998
 20
0.0349899999999993
 30
0.0
 10
1.2790499999999998
 20
0.0861699999999992
 30
0.0
 10
1.2790500025406502
 20
0.0861699999999992
 30
0.0
 42
0.1989123673796588
 10
1.2732858632502622
 20
0.1000858632502613
 30
0.0
 42
0.1989123673796575
 10
1.2593699999999999
 20
0.1058500025406492
 30
0.0
 42
-0.0000624945224426
 10
1.2593649727038438
 20
0.1058500019122923
 30
0.0
 42
-0.0000624969061357
 10
1.259359945599748
 20
0.1058500000272694
 30
0.0
 10
0.2908599999999998
 20
0.1058499999999996
 30
0.0
 42
-0.1989123673796578
 10
0.2630212060246855
 20
0.1173812060246852
 30
0.0
 42
-0.1989123673796587
 10
0.2514899999999999
 20
0.1452199999999993
 30
0.0
 10
0.2514899999999999
 20
2.2672699999999995
 30
0.0
 42
-0.1989123673796575
 10
0.2630212060246855
 20
2.2951087939753139
 30
0.0
 42
-0.1989123673796574
 10
0.2908599999999998
 20
2.3066399999999994
 30
0.0
 10
1.2593599999999996
 20
2.3066399999999994
 30
0.0
 42
0.1989123673796619
 10
1.2732829325215631
 20
2.3124070674784365
 30
0.0
 42
0.1989123673796441
 10
1.2790499999999998
 20
2.3263299999999996
 30
0.0
 10
1.2790499999999998
 20
2.3735699999999995
 30
0.0
 42
-0.1989123673796616
 10
1.2848141385462488
 20
2.3874858614537513
 30
0.0
 42
-0.1989123673796495
 10
1.2987299999999995
 20
2.3932499999999997
 30
0.0
 10
1.6648699999999999
 20
2.3932499999999997
 30
0.0
 42
-0.1989123673796582
 10
1.6927087939753138
 20
2.3817187939753142
 30
0.0
 42
-0.1989123673796559
 10
1.7042399999999995
 20
2.3538799999999993
 30
0.0
 10
1.7042399999999995
 20
0.0546699999999998
 30
0.0
 42
-0.1989123673796513
 10
1.6927087939753143
 20
0.0268312060246852
 30
0.0
 42
-0.198912367379658
 10
1.6648699999999999
 20
0.0152999999999996
 30
0.0
 10
1.2987299999999995
 20
0.0152999999999996
 30
0.0
 10
1.2987299999999995
 20
0.0153099999999995
 30
0.0
 42
-0.1989123673796588
 10
1.2848141385462486
 20
0.0210741385462482
 30
0.0
 42
-0.1989123673796624
 10
1.2790499999999998
 20
0.0349899999999993
 30
0.0
  0
LWPOLYLINE
  5
36
100
AcDbEntity
  8
mainlayer
 62
256
370
-1
 48
1.0
  6
BYLAYER
100
AcDbPolyline
 90
29
 70
1
 10
1.2790499999999998
 20
2.4609900000000002
 30
0.0
 10
1.2790499999999998
 20
2.5121699999999998
 30
0.0
 10
1.2790500025406502
 20
2.5121699999999998
 30
0.0
 42
0.1989123673796479
 10
1.2732858632502624
 20
2.5260858632502621
 30
0.0
 42
0.1989123673796376
 10
1.2593699999999999
 20
2.5318500025406498
 30
0.0
 42
-0.0000624944820698
 10
1.2593649727043712
 20
2.5318500019122934
 30
0.0
 42
-0.0000624968526496
 10
1.259359945599748
 20
2.5318500000272701
 30
0.0
 10
0.2908599999999998
 20
2.5318500000000004
 30
0.0
 42
-0.1989123673796639
 10
0.2630212060246855
 20
2.5433812060246863
 30
0.0
 42
-0.1989123673796515
 10
0.2514899999999999
 20
2.5712199999999998
 30
0.0
 10
0.2514899999999999
 20
4.6932700000000001
 30
0.0
 42
-0.1989123673796504
 10
0.2630212060246855
 20
4.7211087939753149
 30
0.0
 42
-0.1989123673796512
 10
0.2908599999999998
 20
4.73264
 30
0.0
 10
1.2593599999999996
 20
4.73264
 30
0.0
 42
0.1989123673796512
 10
1.2732829325215629
 20
4.7384070674784367
 30
0.0
 42
0.1989123673796818
 10
1.2790499999999998
 20
4.7523299999999997
 30
0.0
 10
1.2790499999999998
 20
4.7995700000000001
 30
0.0
 42
-0.1989123673796591
 10
1.2848141385462488
 20
4.813485861453751
 30
0.0
 42
-0.1989123673796804
 10
1.2987299999999995
 20
4.8192500000000003
 30
0.0
 10
1.6648699999999999
 20
4.8192500000000003
 30
0.0
 42
-0.1989123673796663
 10
1.6927087939753138
 20
4.8077187939753143
 30
0.0
 42
-0.1989123673796686
 10
1.7042399999999995
 20
4.7798800000000004
 30
0.0
 10
1.7042399999999995
 20
2.4806700000000004
 30
0.0
 42
-0.1989123673796617
 10
1.6927087939753138
 20
2.452831206024686
 30
0.0
 42
-0.1989123673796631
 10
1.6648699999999999
 20
2.4413
 30
0.0
 10
1.2987299999999995
 20
2.4413
 30
0.0
 10
1.2987299999999995
 20
2.4413100000000001
 30
0.0
 42
-0.1989123673796495
 10
1.2848141385462486
 20
2.4470741385462484
 30
0.0
 42
-0.1989123673796602
 10
1.2790499999999998
 20
2.4609900000000002
 30
0.0
  0
LWPOLYLINE
  5
37
100
AcDbEntity
  8
mainlayer
 62
256
370
-1
 48
1.0
  6
BYLAYER
100
AcDbPolyline
 90
29
 70
1
 10
1.2790499999999998
 20
4.8859899999999987
 30
0.0
 10
1.2790499999999998
 20
4.9371699999999983
 30
0.0
 10
1.2790500025406502
 20
4.9371699999999983
 30
0.0
 42
0.1989123673796706
 10
1.2732858632502624
 20
4.9510858632502606
 30
0.0
 42
0.1989123673796598
 10
1.2593699999999999
 20
4.9568500025406488
 30
0.0
 42
-0.0000624945372759
 10
1.2593649727052592
 20
4.9568500019122919
 30
0.0
 42
-0.00006249688578
 10
1.259359945599748
 20
4.9568500000272691
 30
0.0
 10
0.2908599999999998
 20
4.9568499999999993
 30
0.0
 42
-0.1989123673796443
 10
0.2630212060246854
 20
4.9683812060246844
 30
0.0
 42
-0.1989123673796578
 10
0.2514899999999999
 20
4.9962199999999983
 30
0.0
 10
0.2514899999999999
 20
7.118269999999999
 30
0.0
 42
-0.1989123673796369
 10
0.2630212060246855
 20
7.1461087939753147
 30
0.0
 42
-0.198912367379631
 10
0.2908599999999998
 20
7.1576399999999989
 30
0.0
 10
1.2593599999999996
 20
7.1576399999999989
 30
0.0
 42
0.1989123673796581
 10
1.2732829325215629
 20
7.1634070674784365
 30
0.0
 42
0.1989123673796828
 10
1.2790499999999998
 20
7.1773299999999987
 30
0.0
 10
1.2790499999999998
 20
7.2245699999999982
 30
0.0
 42
-0.1989123673796335
 10
1.2848141385462488
 20
7.2384858614537508
 30
0.0
 42
-0.1989123673796564
 10
1.2987299999999995
 20
7.2442499999999992
 30
0.0
 10
1.6648699999999999
 20
7.2442499999999992
 30
0.0
 42
-0.198912367379682
 10
1.6927087939753136
 20
7.2327187939753124
 30
0.0
 42
-0.1989123673796554
 10
1.7042399999999995
 20
7.2048799999999984
 30
0.0
 10
1.7042399999999995
 20
4.9056699999999989
 30
0.0
 42
-0.1989123673796703
 10
1.6927087939753138
 20
4.8778312060246849
 30
0.0
 42
-0.1989123673796699
 10
1.6648699999999999
 20
4.866299999999999
 30
0.0
 10
1.2987299999999995
 20
4.866299999999999
 30
0.0
 10
1.2987299999999995
 20
4.8663099999999986
 30
0.0
 42
-0.1989123673796564
 10
1.2848141385462486
 20
4.8720741385462469
 30
0.0
 42
-0.1989123673796699
 10
1.2790499999999998
 20
4.8859899999999987
 30
0.0
  0
LWPOLYLINE
  5
38
100
AcDbEntity
  8
mainlayer
 62
256
370
-1
 48
1.0
  6
BYLAYER
100
AcDbPolyline
 90
29
 70
1
 10
1.2790499999999998
 20
7.3109899999999994
 30
0.0
 10
1.2790499999999998
 20
7.3621699999999999
 30
0.0
 10
1.2790500025406502
 20
7.3621699999999999
 30
0.0
 42
0.1989123673797083
 10
1.2732858632502619
 20
7.3760858632502604
 30
0.0
 42
0.1989123673796975
 10
1.2593699999999999
 20
7.3818500025406495
 30
0.0
 42
-0.0000624945814448
 10
1.2593649727017062
 20
7.3818500019122917
 30
0.0
 42
-0.0000624970182891
 10
1.259359945599748
 20
7.3818500000272698
 30
0.0
 10
0.2908599999999998
 20
7.38185
 30
0.0
 42
-0.198912367379667
 10
0.2630212060246855
 20
7.393381206024686
 30
0.0
 42
-0.1989123673796653
 10
0.2514899999999999
 20
7.4212199999999999
 30
0.0
 10
0.2514899999999999
 20
9.5432699999999997
 30
0.0
 42
-0.1989123673796861
 10
0.2630212060246855
 20
9.5711087939753146
 30
0.0
 42
-0.1989123673796474
 10
0.2908599999999998
 20
9.5826399999999996
 30
0.0
 10
1.2593599999999996
 20
9.5826399999999996
 30
0.0
 42
0.1989123673796258
 10
1.2732829325215629
 20
9.5884070674784354
 30
0.0
 42
0.1989123673796699
 10
1.2790499999999998
 20
9.6023300000000003
 30
0.0
 10
1.2790499999999998
 20
9.6495699999999989
 30
0.0
 42
-0.1989123673796098
 10
1.2848141385462488
 20
9.6634858614537524
 30
0.0
 42
-0.198912367379629
 10
1.2987299999999995
 20
9.6692499999999999
 30
0.0
 10
1.6648699999999999
 20
9.6692499999999999
 30
0.0
 42
-0.1989123673796533
 10
1.6927087939753138
 20
9.6577187939753149
 30
0.0
 42
-0.1989123673796588
 10
1.7042399999999995
 20
9.62988
 30
0.0
 10
1.7042399999999995
 20
7.3306700000000005
 30
0.0
 42
-0.1989123673796478
 10
1.6927087939753138
 20
7.3028312060246856
 30
0.0
 42
-0.1989123673796542
 10
1.6648699999999999
 20
7.2913000000000006
 30
0.0
 10
1.2987299999999995
 20
7.2913000000000006
 30
0.0
 10
1.2987299999999995
 20
7.2913100000000002
 30
0.0
 42
-0.1989123673796495
 10
1.2848141385462486
 20
7.2970741385462485
 30
0.0
 42
-0.1989123673796737
 10
1.2790499999999998
 20
7.3109899999999994
 30
0.0
  0
LWPOLYLINE
  5
39
100
AcDbEntity
  8
mainlayer
 62
256
370
-1
 48
1.0
  6
BYLAYER
100
AcDbPolyline
 90
29
 70
1
 10
2.7790499999999998
 20
0.0349899999999993
 30
0.0
 10
2.7790499999999998
 20
0.0861699999999992
 30
0.0
 10
2.7790500025406506
 20
0.0861699999999992
 30
0.0
 42
0.1989123673796593
 10
2.7732858632502628
 20
0.1000858632502613
 30
0.0
 42
0.1989123673796567
 10
2.7593700000000001
 20
0.1058500025406492
 30
0.0
 42
-0.000062494523809
 10
2.759364972703843
 20
0.1058500019122923
 30
0.0
 42
-0.0000624969075243
 10
2.7593599455997477
 20
0.1058500000272694
 30
0.0
 10
1.7908599999999999
 20
0.1058499999999996
 30
0.0
 42
-0.1989123673796529
 10
1.7630212060246853
 20
0.1173812060246852
 30
0.0
 42
-0.1989123673796576
 10
1.7514899999999998
 20
0.1452199999999993
 30
0.0
 10
1.7514899999999998
 20
2.2672699999999995
 30
0.0
 42
-0.1989123673796551
 10
1.7630212060246853
 20
2.2951087939753134
 30
0.0
 42
-0.1989123673796636
 10
1.7908599999999999
 20
2.3066399999999994
 30
0.0
 10
2.7593599999999996
 20
2.3066399999999994
 30
0.0
 42
0.1989123673796587
 10
2.7732829325215631
 20
2.3124070674784365
 30
0.0
 42
0.1989123673796442
 10
2.7790499999999998
 20
2.3263299999999996
 30
0.0
 10
2.7790499999999998
 20
2.3735699999999995
 30
0.0
 42
-0.1989123673796502
 10
2.7848141385462482
 20
2.3874858614537513
 30
0.0
 42
-0.1989123673796505
 10
2.7987299999999995
 20
2.3932499999999997
 30
0.0
 10
3.1648700000000001
 20
2.3932499999999997
 30
0.0
 42
-0.1989123673796559
 10
3.1927087939753145
 20
2.3817187939753142
 30
0.0
 42
-0.1989123673796479
 10
3.2042399999999995
 20
2.3538799999999993
 30
0.0
 10
3.2042399999999995
 20
0.0546699999999998
 30
0.0
 42
-0.1989123673796565
 10
3.192708793975314
 20
0.0268312060246851
 30
0.0
 42
-0.1989123673796628
 10
3.1648700000000001
 20
0.0152999999999996
 30
0.0
 10
2.7987299999999995
 20
0.0152999999999996
 30
0.0
 10
2.7987299999999995
 20
0.0153099999999995
 30
0.0
 42
-0.1989123673796675
 10
2.7848141385462486
 20
0.0210741385462482
 30
0.0
 42
-0.1989123673796643
 10
2.7790499999999998
 20
0.0349899999999993
 30
0.0
  0
LWPOLYLINE
  5
3A
100
AcDbEntity
  8
mainlayer
 62
256
370
-1
 48
1.0
  6
BYLAYER
100
AcDbPolyline
 90
29
 70
1
 10
2.7790499999999998
 20
2.4609900000000002
 30
0.0
 10
2.7790499999999998
 20
2.5121699999999998
 30
0.0
 10
2.7790500025406506
 20
2.5121699999999998
 30
0.0
 42
0.198912367379673
 10
2.7732858632502624
 20
2.5260858632502616
 30
0.0
 42
0.1989123673796602
 10
2.7593700000000001
 20
2.5318500025406498
 30
0.0
 42
-0.0000624944820588
 10
2.7593649727043705
 20
2.5318500019122934
 30
0.0
 42
-0.0000624968526551
 10
2.7593599455997477
 20
2.5318500000272701
 30
0.0
 10
1.7908599999999999
 20
2.5318500000000004
 30
0.0
 42
-0.1989123673796451
 10
1.7630212060246853
 20
2.5433812060246854
 30
0.0
 42
-0.1989123673796614
 10
1.7514899999999998
 20
2.5712199999999998
 30
0.0
 10
1.7514899999999998
 20
4.6932700000000001
 30
0.0
 42
-0.1989123673796381
 10
1.7630212060246853
 20
4.7211087939753149
 30
0.0
 42
-0.1989123673796442
 10
1.7908599999999999
 20
4.73264
 30
0.0
 10
2.7593599999999996
 20
4.73264
 30
0.0
 42
0.1989123673796457
 10
2.7732829325215631
 20
4.7384070674784367
 30
0.0
 42
0.1989123673796783
 10
2.7790499999999998
 20
4.7523299999999997
 30
0.0
 10
2.7790499999999998
 20
4.7995700000000001
 30
0.0
 42
-0.1989123673796115
 10
2.7848141385462482
 20
4.813485861453751
 30
0.0
 42
-0.1989123673796797
 10
2.7987299999999995
 20
4.8192500000000003
 30
0.0
 10
3.1648700000000001
 20
4.8192500000000003
 30
0.0
 42
-0.1989123673796622
 10
3.1927087939753145
 20
4.8077187939753143
 30
0.0
 42
-0.1989123673796493
 10
3.2042399999999995
 20
4.7798800000000004
 30
0.0
 10
3.2042399999999995
 20
2.4806700000000004
 30
0.0
 42
-0.1989123673796553
 10
3.1927087939753145
 20
2.452831206024686
 30
0.0
 42
-0.1989123673796652
 10
3.1648700000000001
 20
2.4413
 30
0.0
 10
2.7987299999999995
 20
2.4413
 30
0.0
 10
2.7987299999999995
 20
2.4413100000000001
 30
0.0
 42
-0.1989123673796455
 10
2.7848141385462482
 20
2.4470741385462484
 30
0.0
 42
-0.1989123673796373
 10
2.7790499999999998
 20
2.4609900000000002
 30
0.0
  0
LWPOLYLINE
  5
3B
100
AcDbEntity
  8
mainlayer
 62
256
370
-1
 48
1.0
  6
BYLAYER
100
AcDbPolyline
 90
29
 70
1
 10
2.7790499999999998
 20
4.8859899999999987
 30
0.0
 10
2.7790499999999998
 20
4.9371699999999983
 30
0.0
 10
2.7790500025406506
 20
4.9371699999999983
 30
0.0
 42
0.1989123673796632
 10
2.7732858632502628
 20
4.9510858632502615
 30
0.0
 42
0.1989123673796385
 10
2.7593700000000001
 20
4.9568500025406488
 30
0.0
 42
-0.0000624945372676
 10
2.7593649727052587
 20
4.9568500019122919
 30
0.0
 42
-0.0000624968857828
 10
2.7593599455997477
 20
4.9568500000272691
 30
0.0
 10
1.7908599999999999
 20
4.9568499999999993
 30
0.0
 42
-0.1989123673796613
 10
1.7630212060246853
 20
4.9683812060246852
 30
0.0
 42
-0.1989123673796686
 10
1.7514899999999998
 20
4.9962199999999983
 30
0.0
 10
1.7514899999999998
 20
7.118269999999999
 30
0.0
 42
-0.1989123673796411
 10
1.7630212060246853
 20
7.1461087939753138
 30
0.0
 42
-0.1989123673796442
 10
1.7908599999999999
 20
7.1576399999999989
 30
0.0
 10
2.7593599999999996
 20
7.1576399999999989
 30
0.0
 42
0.1989123673796712
 10
2.7732829325215631
 20
7.1634070674784365
 30
0.0
 42
0.1989123673797011
 10
2.7790499999999998
 20
7.1773299999999987
 30
0.0
 10
2.7790499999999998
 20
7.2245699999999982
 30
0.0
 42
-0.1989123673796126
 10
2.7848141385462486
 20
7.2384858614537508
 30
0.0
 42
-0.1989123673796495
 10
2.7987299999999995
 20
7.2442499999999992
 30
0.0
 10
3.1648700000000001
 20
7.2442499999999992
 30
0.0
 42
-0.1989123673796487
 10
3.1927087939753136
 20
7.2327187939753141
 30
0.0
 42
-0.1989123673796649
 10
3.2042399999999995
 20
7.2048799999999984
 30
0.0
 10
3.2042399999999995
 20
4.9056699999999989
 30
0.0
 42
-0.1989123673796501
 10
3.1927087939753145
 20
4.8778312060246849
 30
0.0
 42
-0.1989123673796686
 10
3.1648700000000001
 20
4.866299999999999
 30
0.0
 10
2.7987299999999995
 20
4.866299999999999
 30
0.0
 10
2.7987299999999995
 20
4.8663099999999986
 30
0.0
 42
-0.1989123673796524
 10
2.7848141385462482
 20
4.8720741385462469
 30
0.0
 42
-0.1989123673796641
 10
2.7790499999999998
 20
4.8859899999999987
 30
0.0
  0
LWPOLYLINE
  5
3C
100
AcDbEntity
  8
mainlayer
 62
256
370
-1
 48
1.0
  6
BYLAYER
100
AcDbPolyline
 90
29
 70
1
 10
2.7790499999999998
 20
7.3109899999999994
 30
0.0
 10
2.7790499999999998
 20
7.3621699999999999
 30
0.0
 10
2.7790500025406506
 20
7.3621699999999999
 30
0.0
 42
0.1989123673796943
 10
2.7732858632502628
 20
7.3760858632502604
 30
0.0
 42
0.1989123673796968
 10
2.7593700000000001
 20
7.3818500025406495
 30
0.0
 42
-0.0000624944930982
 10
2.7593649727017056
 20
7.3818500019122926
 30
0.0
 42
-0.0000624969299556
 10
2.7593599455997477
 20
7.3818500000272698
 30
0.0
 10
1.7908599999999999
 20
7.38185
 30
0.0
 42
-0.1989123673796738
 10
1.7630212060246853
 20
7.3933812060246868
 30
0.0
 42
-0.1989123673796513
 10
1.7514899999999998
 20
7.4212199999999999
 30
0.0
 10
1.7514899999999998
 20
9.5432699999999997
 30
0.0
 42
-0.1989123673796671
 10
1.7630212060246853
 20
9.5711087939753146
 30
0.0
 42
-0.1989123673796488
 10
1.7908599999999999
 20
9.5826399999999996
 30
0.0
 10
2.7593599999999996
 20
9.5826399999999996
 30
0.0
 42
0.1989123673796272
 10
2.7732829325215631
 20
9.5884070674784354
 30
0.0
 42
0.1989123673796149
 10
2.7790499999999998
 20
9.6023300000000003
 30
0.0
 10
2.7790499999999998
 20
9.6495699999999989
 30
0.0
 42
-0.1989123673796608
 10
2.7848141385462486
 20
9.6634858614537524
 30
0.0
 42
-0.198912367379629
 10
2.7987299999999995
 20
9.6692499999999999
 30
0.0
 10
3.1648700000000001
 20
9.6692499999999999
 30
0.0
 42
-0.1989123673796478
 10
3.1927087939753145
 20
9.6577187939753149
 30
0.0
 42
-0.1989123673796565
 10
3.2042399999999995
 20
9.62988
 30
0.0
 10
3.2042399999999995
 20
7.3306700000000005
 30
0.0
 42
-0.1989123673796501
 10
3.1927087939753145
 20
7.3028312060246865
 30
0.0
 42
-0.1989123673796686
 10
3.1648700000000001
 20
7.2913000000000006
 30
0.0
 10
2.7987299999999995
 20
7.2913000000000006
 30
0.0
 10
2.7987299999999995
 20
7.2913100000000002
 30
0.0
 42
-0.1989123673796455
 10
2.7848141385462482
 20
7.2970741385462485
 30
0.0
 42
-0.1989123673796538
 10
2.7790499999999998
 20
7.3109899999999994
 30
0.0
  0
LWPOLYLINE
  5
3D
100
AcDbEntity
  8
mainlayer
 62
256
370
-1
 48
1.0
  6
BYLAYER
100
AcDbPolyline
 90
29
 70
1
 10
4.2790499999999998
 20
0.0349899999999993
 30
0.0
 10
4.2790499999999998
 20
0.0861699999999992
 30
0.0
 10
4.2790500025406502
 20
0.0861699999999992
 30
0.0
 42
0.1989123673796394
 10
4.2732858632502628
 20
0.1000858632502613
 30
0.0
 42
0.1989123673796341
 10
4.2593699999999997
 20
0.1058500025406492
 30
0.0
 42
-0.0000624945224398
 10
4.2593649727038434
 20
0.1058500019122923
 30
0.0
 42
-0.0000624969075188
 10
4.2593599455997477
 20
0.1058500000272694
 30
0.0
 10
3.2908599999999995
 20
0.1058499999999996
 30
0.0
 42
-0.1989123673796551
 10
3.2630212060246846
 20
0.1173812060246852
 30
0.0
 42
-0.198912367379652
 10
3.2514899999999995
 20
0.1452199999999993
 30
0.0
 10
3.2514899999999995
 20
2.2672699999999995
 30
0.0
 42
-0.1989123673796703
 10
3.2630212060246859
 20
2.2951087939753139
 30
0.0
 42
-0.1989123673796623
 10
3.2908599999999995
 20
2.3066399999999994
 30
0.0
 10
4.2593599999999991
 20
2.3066399999999994
 30
0.0
 42
0.1989123673796796
 10
4.2732829325215631
 20
2.3124070674784369
 30
0.0
 42
0.1989123673796625
 10
4.2790499999999998
 20
2.3263299999999996
 30
0.0
 10
4.2790499999999998
 20
2.3735699999999995
 30
0.0
 42
-0.1989123673796765
 10
4.284814138546249
 20
2.3874858614537513
 30
0.0
 42
-0.1989123673796668
 10
4.2987299999999991
 20
2.3932499999999997
 30
0.0
 10
4.6648699999999996
 20
2.3932499999999997
 30
0.0
 42
-0.1989123673796533
 10
4.6927087939753136
 20
2.3817187939753137
 30
0.0
 42
-0.1989123673796594
 10
4.7042399999999995
 20
2.3538799999999993
 30
0.0
 10
4.7042399999999995
 20
0.0546699999999998
 30
0.0
 42
-0.1989123673796576
 10
4.6927087939753136
 20
0.0268312060246852
 30
0.0
 42
-0.1989123673796514
 10
4.6648699999999996
 20
0.0152999999999996
 30
0.0
 10
4.2987299999999991
 20
0.0152999999999996
 30
0.0
 10
4.2987299999999991
 20
0.0153099999999995
 30
0.0
 42
-0.1989123673796637
 10
4.2848141385462473
 20
0.0210741385462481
 30
0.0
 42
-0.1989123673796195
 10
4.2790499999999998
 20
0.0349899999999993
 30
0.0
  0
LWPOLYLINE
  5
3E
100
AcDbEntity
  8
mainlayer
 62
256
370
-1
 48
1.0
  6
BYLAYER
100
AcDbPolyline
 90
29
 70
1
 10
4.2790499999999998
 20
2.4609900000000002
 30
0.0
 10
4.2790499999999998
 20
2.5121699999999998
 30
0.0
 10
4.2790500025406502
 20
2.5121699999999998
 30
0.0
 42
0.1989123673796674
 10
4.2732858632502619
 20
2.5260858632502616
 30
0.0
 42
0.1989123673796445
 10
4.2593699999999997
 20
2.5318500025406498
 30
0.0
 42
-0.0000624944820588
 10
4.2593649727043701
 20
2.5318500019122934
 30
0.0
 42
-0.0000624968526606
 10
4.2593599455997477
 20
2.5318500000272701
 30
0.0
 10
3.2908599999999995
 20
2.5318500000000004
 30
0.0
 42
-0.1989123673796622
 10
3.263021206024685
 20
2.5433812060246863
 30
0.0
 42
-0.1989123673796576
 10
3.2514899999999995
 20
2.5712199999999998
 30
0.0
 10
3.2514899999999995
 20
4.6932700000000001
 30
0.0
 42
-0.1989123673796628
 10
3.2630212060246859
 20
4.7211087939753149
 30
0.0
 42
-0.198912367379656
 10
3.2908599999999995
 20
4.73264
 30
0.0
 10
4.2593599999999991
 20
4.73264
 30
0.0
 42
0.1989123673796736
 10
4.2732829325215631
 20
4.7384070674784375
 30
0.0
 42
0.1989123673796762
 10
4.2790499999999998
 20
4.7523299999999997
 30
0.0
 10
4.2790499999999998
 20
4.7995700000000001
 30
0.0
 42
-0.1989123673796341
 10
4.284814138546249
 20
4.8134858614537519
 30
0.0
 42
-0.1989123673796668
 10
4.2987299999999991
 20
4.8192500000000003
 30
0.0
 10
4.6648699999999996
 20
4.8192500000000003
 30
0.0
 42
-0.1989123673796488
 10
4.6927087939753145
 20
4.8077187939753152
 30
0.0
 42
-0.1989123673796405
 10
4.7042399999999995
 20
4.7798800000000004
 30
0.0
 10
4.7042399999999995
 20
2.4806700000000004
 30
0.0
 42
-0.1989123673796581
 10
4.6927087939753136
 20
2.4528312060246855
 30
0.0
 42
-0.1989123673796434
 10
4.6648699999999996
 20
2.4413
 30
0.0
 10
4.2987299999999991
 20
2.4413
 30
0.0
 10
4.2987299999999991
 20
2.4413100000000001
 30
0.0
 42
-0.1989123673796816
 10
4.284814138546249
 20
2.4470741385462489
 30
0.0
 42
-0.198912367379674
 10
4.2790499999999998
 20
2.4609900000000002
 30
0.0
  0
LWPOLYLINE
  5
3F
100
AcDbEntity
  8
mainlayer
 62
256
370
-1
 48
1.0
  6
BYLAYER
100
AcDbPolyline
 90
29
 70
1
 10
4.2790499999999998
 20
4.8859899999999987
 30
0.0
 10
4.2790499999999998
 20
4.9371699999999983
 30
0.0
 10
4.2790500025406502
 20
4.9371699999999983
 30
0.0
 42
0.1989123673796434
 10
4.2732858632502628
 20
4.9510858632502615
 30
0.0
 42
0.1989123673796151
 10
4.2593699999999997
 20
4.9568500025406488
 30
0.0
 42
-0.0000624945372786
 10
4.2593649727052592
 20
4.9568500019122919
 30
0.0
 42
-0.0000624968857773
 10
4.2593599455997477
 20
4.9568500000272691
 30
0.0
 10
3.2908599999999995
 20
4.9568499999999993
 30
0.0
 42
-0.1989123673796446
 10
3.263021206024685
 20
4.9683812060246844
 30
0.0
 42
-0.1989123673796605
 10
3.2514899999999995
 20
4.9962199999999983
 30
0.0
 10
3.2514899999999995
 20
7.118269999999999
 30
0.0
 42
-0.1989123673796564
 10
3.2630212060246859
 20
7.1461087939753147
 30
0.0
 42
-0.1989123673796371
 10
3.2908599999999995
 20
7.1576399999999989
 30
0.0
 10
4.2593599999999991
 20
7.1576399999999989
 30
0.0
 42
0.1989123673797064
 10
4.2732829325215631
 20
7.1634070674784374
 30
0.0
 42
0.1989123673796452
 10
4.2790499999999998
 20
7.1773299999999987
 30
0.0
 10
4.2790499999999998
 20
7.2245699999999982
 30
0.0
 42
-0.1989123673796564
 10
4.2848141385462482
 20
7.2384858614537491
 30
0.0
 42
-0.1989123673796884
 10
4.2987299999999991
 20
7.2442499999999992
 30
0.0
 10
4.6648699999999996
 20
7.2442499999999992
 30
0.0
 42
-0.1989123673796618
 10
4.6927087939753145
 20
7.2327187939753133
 30
0.0
 42
-0.1989123673796405
 10
4.7042399999999995
 20
7.2048799999999984
 30
0.0
 10
4.7042399999999995
 20
4.9056699999999989
 30
0.0
 42
-0.1989123673796565
 10
4.6927087939753145
 20
4.8778312060246849
 30
0.0
 42
-0.1989123673796576
 10
4.6648699999999996
 20
4.866299999999999
 30
0.0
 10
4.2987299999999991
 20
4.866299999999999
 30
0.0
 10
4.2987299999999991
 20
4.8663099999999986
 30
0.0
 42
-0.1989123673796978
 10
4.284814138546249
 20
4.8720741385462478
 30
0.0
 42
-0.1989123673796547
 10
4.2790499999999998
 20
4.8859899999999987
 30
0.0
  0
LWPOLYLINE
  5
40
100
AcDbEntity
  8
mainlayer
 62
256
370
-1
 48
1.0
  6
BYLAYER
100
AcDbPolyline
 90
29
 70
1
 10
4.2790499999999998
 20
7.3109899999999994
 30
0.0
 10
4.2790499999999998
 20
7.3621699999999999
 30
0.0
 10
4.2790500025406502
 20
7.3621699999999999
 30
0.0
 42
0.1989123673797143
 10
4.2732858632502619
 20
7.3760858632502604
 30
0.0
 42
0.1989123673796714
 10
4.2593699999999997
 20
7.3818500025406495
 30
0.0
 42
-0.0000624945814392
 10
4.2593649727017056
 20
7.3818500019122917
 30
0.0
 42
-0.0000624970182946
 10
4.2593599455997477
 20
7.3818500000272698
 30
0.0
 10
3.2908599999999995
 20
7.38185
 30
0.0
 42
-0.1989123673796695
 10
3.2630212060246855
 20
7.393381206024686
 30
0.0
 42
-0.1989123673796669
 10
3.2514899999999995
 20
7.4212199999999999
 30
0.0
 10
3.2514899999999995
 20
9.5432699999999997
 30
0.0
 42
-0.1989123673796905
 10
3.2630212060246859
 20
9.5711087939753146
 30
0.0
 42
-0.1989123673796675
 10
3.2908599999999995
 20
9.5826399999999996
 30
0.0
 10
4.2593599999999991
 20
9.5826399999999996
 30
0.0
 42
0.1989123673796296
 10
4.2732829325215631
 20
9.5884070674784354
 30
0.0
 42
0.1989123673796149
 10
4.2790499999999998
 20
9.6023300000000003
 30
0.0
 10
4.2790499999999998
 20
9.6495699999999989
 30
0.0
 42
-0.1989123673796315
 10
4.2848141385462482
 20
9.6634858614537507
 30
0.0
 42
-0.1989123673796837
 10
4.2987299999999991
 20
9.6692499999999999
 30
0.0
 10
4.6648699999999996
 20
9.6692499999999999
 30
0.0
 42
-0.1989123673796419
 10
4.6927087939753145
 20
9.6577187939753149
 30
0.0
 42
-0.1989123673796405
 10
4.7042399999999995
 20
9.62988
 30
0.0
 10
4.7042399999999995
 20
7.3306700000000005
 30
0.0
 42
-0.1989123673796565
 10
4.6927087939753145
 20
7.3028312060246865
 30
0.0
 42
-0.1989123673796673
 10
4.6648699999999996
 20
7.2913000000000006
 30
0.0
 10
4.2987299999999991
 20
7.2913000000000006
 30
0.0
 10
4.2987299999999991
 20
7.2913100000000002
 30
0.0
 42
-0.1989123673796909
 10
4.284814138546249
 20
7.2970741385462494
 30
0.0
 42
-0.1989123673797107
 10
4.2790499999999998
 20
7.3109899999999994
 30
0.0
  0
LWPOLYLINE
  5
41
100
AcDbEntity
  8
mainlayer
 62
256
370
-1
 48
1.0
  6
BYLAYER
100
AcDbPolyline
 90
29
 70
1
 10
5.7790499999999998
 20
0.0349899999999993
 30
0.0
 10
5.7790499999999998
 20
0.0861699999999992
 30
0.0
 10
5.7790500025406502
 20
0.0861699999999992
 30
0.0
 42
0.1989123673796657
 10
5.7732858632502619
 20
0.1000858632502614
 30
0.0
 42
0.1989123673796539
 10
5.7593700000000005
 20
0.1058500025406492
 30
0.0
 42
-0.0000624945224398
 10
5.7593649727038443
 20
0.1058500019122923
 30
0.0
 42
-0.0000624969061385
 10
5.7593599455997486
 20
0.1058500000272694
 30
0.0
 10
4.7908599999999995
 20
0.1058499999999996
 30
0.0
 42
-0.1989123673796507
 10
4.7630212060246855
 20
0.1173812060246851
 30
0.0
 42
-0.1989123673796508
 10
4.7514900000000004
 20
0.1452199999999993
 30
0.0
 10
4.7514900000000004
 20
2.2672699999999995
 30
0.0
 42
-0.198912367379664
 10
4.7630212060246864
 20
2.2951087939753139
 30
0.0
 42
-0.1989123673796565
 10
4.7908599999999995
 20
2.3066399999999994
 30
0.0
 10
5.75936
 20
2.3066399999999994
 30
0.0
 42
0.1989123673796661
 10
5.7732829325215622
 20
2.3124070674784361
 30
0.0
 42
0.1989123673796979
 10
5.7790499999999998
 20
2.3263299999999996
 30
0.0
 10
5.7790499999999998
 20
2.3735699999999995
 30
0.0
 42
-0.1989123673796765
 10
5.784814138546249
 20
2.3874858614537513
 30
0.0
 42
-0.19891236737964
 10
5.7987299999999991
 20
2.3932499999999997
 30
0.0
 10
6.1648699999999996
 20
2.3932499999999997
 30
0.0
 42
-0.1989123673796614
 10
6.1927087939753136
 20
2.3817187939753137
 30
0.0
 42
-0.1989123673796576
 10
6.2042399999999995
 20
2.3538799999999993
 30
0.0
 10
6.2042399999999995
 20
0.0546699999999998
 30
0.0
 42
-0.1989123673796576
 10
6.1927087939753136
 20
0.0268312060246852
 30
0.0
 42
-0.1989123673796617
 10
6.1648699999999996
 20
0.0152999999999996
 30
0.0
 10
5.7987299999999991
 20
0.0152999999999996
 30
0.0
 10
5.7987299999999991
 20
0.0153099999999995
 30
0.0
 42
-0.198912367379673
 10
5.7848141385462482
 20
0.0210741385462481
 30
0.0
 42
-0.1989123673796523
 10
5.7790499999999998
 20
0.0349899999999993
 30
0.0
  0
LWPOLYLINE
  5
42
100
AcDbEntity
  8
mainlayer
 62
256
370
-1
 48
1.0
  6
BYLAYER
100
AcDbPolyline
 90
29
 70
1
 10
5.7790499999999998
 20
2.4609900000000002
 30
0.0
 10
5.7790499999999998
 20
2.5121699999999998
 30
0.0
 10
5.7790500025406502
 20
2.5121699999999998
 30
0.0
 42
0.1989123673796491
 10
5.7732858632502619
 20
2.5260858632502621
 30
0.0
 42
0.19891236737964
 10
5.7593700000000005
 20
2.5318500025406498
 30
0.0
 42
-0.0000624944820698
 10
5.7593649727043719
 20
2.5318500019122934
 30
0.0
 42
-0.0000624968526496
 10
5.7593599455997486
 20
2.5318500000272701
 30
0.0
 10
4.7908599999999995
 20
2.5318500000000004
 30
0.0
 42
-0.198912367379656
 10
4.7630212060246864
 20
2.5433812060246859
 30
0.0
 42
-0.1989123673796713
 10
4.7514900000000004
 20
2.5712199999999998
 30
0.0
 10
4.7514900000000004
 20
4.6932700000000001
 30
0.0
 42
-0.1989123673796626
 10
4.7630212060246864
 20
4.721108793975314
 30
0.0
 42
-0.1989123673796653
 10
4.7908599999999995
 20
4.73264
 30
0.0
 10
5.75936
 20
4.73264
 30
0.0
 42
0.1989123673796874
 10
5.773282932521564
 20
4.7384070674784375
 30
0.0
 42
0.1989123673796425
 10
5.7790499999999998
 20
4.7523299999999997
 30
0.0
 10
5.7790499999999998
 20
4.7995700000000001
 30
0.0
 42
-0.1989123673796479
 10
5.784814138546249
 20
4.8134858614537519
 30
0.0
 42
-0.1989123673796448
 10
5.7987299999999991
 20
4.8192500000000003
 30
0.0
 10
6.1648699999999996
 20
4.8192500000000003
 30
0.0
 42
-0.1989123673796488
 10
6.1927087939753145
 20
4.8077187939753152
 30
0.0
 42
-0.1989123673796405
 10
6.2042399999999995
 20
4.7798800000000004
 30
0.0
 10
6.2042399999999995
 20
2.4806700000000004
 30
0.0
 42
-0.1989123673796618
 10
6.1927087939753136
 20
2.4528312060246855
 30
0.0
 42
-0.1989123673796434
 10
6.1648699999999996
 20
2.4413
 30
0.0
 10
5.7987299999999991
 20
2.4413
 30
0.0
 10
5.7987299999999991
 20
2.4413100000000001
 30
0.0
 42
-0.1989123673796585
 10
5.784814138546249
 20
2.4470741385462489
 30
0.0
 42
-0.198912367379674
 10
5.7790499999999998
 20
2.4609900000000002
 30
0.0
  0
LWPOLYLINE
  5
43
100
AcDbEntity
  8
mainlayer
 62
256
370
-1
 48
1.0
  6
BYLAYER
100
AcDbPolyline
 90
29
 70
1
 10
5.7790499999999998
 20
4.8859899999999987
 30
0.0
 10
5.7790499999999998
 20
4.9371699999999983
 30
0.0
 10
5.7790500025406502
 20
4.9371699999999983
 30
0.0
 42
0.1989123673796779
 10
5.7732858632502619
 20
4.9510858632502615
 30
0.0
 42
0.1989123673796304
 10
5.7593700000000005
 20
4.9568500025406488
 30
0.0
 42
-0.0000624945372676
 10
5.7593649727052592
 20
4.9568500019122919
 30
0.0
 42
-0.0000624968857883
 10
5.7593599455997486
 20
4.9568500000272691
 30
0.0
 10
4.7908599999999995
 20
4.9568499999999993
 30
0.0
 42
-0.1989123673796525
 10
4.7630212060246855
 20
4.9683812060246852
 30
0.0
 42
-0.1989123673796578
 10
4.7514900000000004
 20
4.9962199999999983
 30
0.0
 10
4.7514900000000004
 20
7.118269999999999
 30
0.0
 42
-0.1989123673796626
 10
4.7630212060246864
 20
7.146108793975313
 30
0.0
 42
-0.1989123673796653
 10
4.7908599999999995
 20
7.1576399999999989
 30
0.0
 10
5.75936
 20
7.1576399999999989
 30
0.0
 42
0.1989123673796343
 10
5.773282932521564
 20
7.1634070674784356
 30
0.0
 42
0.1989123673796151
 10
5.7790499999999998
 20
7.1773299999999987
 30
0.0
 10
5.7790499999999998
 20
7.2245699999999982
 30
0.0
 42
-0.1989123673796685
 10
5.7848141385462482
 20
7.2384858614537491
 30
0.0
 42
-0.1989123673797276
 10
5.7987299999999991
 20
7.2442499999999992
 30
0.0
 10
6.1648699999999996
 20
7.2442499999999992
 30
0.0
 42
-0.1989123673796626
 10
6.1927087939753136
 20
7.2327187939753133
 30
0.0
 42
-0.1989123673796517
 10
6.2042399999999995
 20
7.2048799999999984
 30
0.0
 10
6.2042399999999995
 20
4.9056699999999989
 30
0.0
 42
-0.1989123673796626
 10
6.1927087939753136
 20
4.8778312060246849
 30
0.0
 42
-0.1989123673796617
 10
6.1648699999999996
 20
4.866299999999999
 30
0.0
 10
5.7987299999999991
 20
4.866299999999999
 30
0.0
 10
5.7987299999999991
 20
4.8663099999999986
 30
0.0
 42
-0.1989123673796723
 10
5.784814138546249
 20
4.8720741385462478
 30
0.0
 42
-0.1989123673796644
 10
5.7790499999999998
 20
4.8859899999999987
 30
0.0
  0
LWPOLYLINE
  5
44
100
AcDbEntity
  8
mainlayer
 62
256
370
-1
 48
1.0
  6
BYLAYER
100
AcDbPolyline
 90
29
 70
1
 10
5.7790499999999998
 20
7.3109899999999994
 30
0.0
 10
5.7790499999999998
 20
7.3621699999999999
 30
0.0
 10
5.7790500025406502
 20
7.3621699999999999
 30
0.0
 42
0.1989123673796544
 10
5.7732858632502619
 20
7.3760858632502613
 30
0.0
 42
0.1989123673796641
 10
5.7593700000000005
 20
7.3818500025406495
 30
0.0
 42
-0.0000624945814282
 10
5.7593649727017056
 20
7.3818500019122917
 30
0.0
 42
-0.0000624970183056
 10
5.7593599455997486
 20
7.3818500000272698
 30
0.0
 10
4.7908599999999995
 20
7.38185
 30
0.0
 42
-0.198912367379621
 10
4.7630212060246855
 20
7.3933812060246842
 30
0.0
 42
-0.1989123673796323
 10
4.7514900000000004
 20
7.4212199999999999
 30
0.0
 10
4.7514900000000004
 20
9.5432699999999997
 30
0.0
 42
-0.19891236737968
 10
4.7630212060246864
 20
9.5711087939753128
 30
0.0
 42
-0.1989123673796823
 10
4.7908599999999995
 20
9.5826399999999996
 30
0.0
 10
5.75936
 20
9.5826399999999996
 30
0.0
 42
0.1989123673796826
 10
5.7732829325215631
 20
9.5884070674784372
 30
0.0
 42
0.198912367379654
 10
5.7790499999999998
 20
9.6023300000000003
 30
0.0
 10
5.7790499999999998
 20
9.6495699999999989
 30
0.0
 42
-0.198912367379638
 10
5.7848141385462482
 20
9.6634858614537507
 30
0.0
 42
-0.1989123673796837
 10
5.7987299999999991
 20
9.6692499999999999
 30
0.0
 10
6.1648699999999996
 20
9.6692499999999999
 30
0.0
 42
-0.1989123673796419
 10
6.1927087939753145
 20
9.6577187939753149
 30
0.0
 42
-0.1989123673796502
 10
6.2042399999999995
 20
9.62988
 30
0.0
 10
6.2042399999999995
 20
7.3306700000000005
 30
0.0
 42
-0.1989123673796626
 10
6.1927087939753136
 20
7.3028312060246865
 30
0.0
 42
-0.1989123673796553
 10
6.1648699999999996
 20
7.2913000000000006
 30
0.0
 10
5.7987299999999991
 20
7.2913000000000006
 30
0.0
 10
5.7987299999999991
 20
7.2913100000000002
 30
0.0
 42
-0.1989123673796723
 10
5.784814138546249
 20
7.2970741385462494
 30
0.0
 42
-0.1989123673797203
 10
5.7790499999999998
 20
7.3109899999999994
 30
0.0
  0
LWPOLYLINE
  5
45
100
AcDbEntity
  8
mainlayer
 62
256
370
-1
 48
1.0
  6
BYLAYER
100
AcDbPolyline
 90
59
 70
1
 10
0.0230624581751968
 20
9.6619375418248037
 30
0.0
 10
0.078740157480315
 20
9.6850000000000005
 30
0.0
 10
1.2494523768215477
 20
9.6850000000000005
 30
0.0
 10
1.2320499999999996
 20
9.6495699999999989
 30
0.0
 10
1.2320499999999996
 20
9.6296400000000002
 30
0.0
 10
0.2908599999999998
 20
9.6296400000000002
 30
0.0
 10
0.2322206919883145
 20
9.6019093080116846
 30
0.0
 10
0.2044899999999999
 20
9.5432699999999997
 30
0.0
 10
0.2044899999999999
 20
7.4212199999999999
 30
0.0
 10
0.2322206919883143
 20
7.3625806919883141
 30
0.0
 10
0.2908599999999998
 20
7.3348500000000003
 30
0.0
 10
1.2320499999999996
 20
7.3348500000265009
 30
0.0
 10
1.2320499999999996
 20
7.3109899999999994
 30
0.0
 10
1.2458159812847744
 20
7.2777559812847752
 30
0.0
 10
1.2490270635957055
 20
7.2764259074416175
 30
0.0
 10
1.2532737285480973
 20
7.2677799999999992
 30
0.0
 10
1.2320499999999996
 20
7.2245699999999982
 30
0.0
 10
1.2320499999999996
 20
7.2046399999999995
 30
0.0
 10
0.2908599999999998
 20
7.2046399999999995
 30
0.0
 10
0.2322206919883145
 20
7.1769093080116839
 30
0.0
 10
0.2044899999999999
 20
7.118269999999999
 30
0.0
 10
0.2044899999999999
 20
4.9962199999999983
 30
0.0
 10
0.2322206919883143
 20
4.9375806919883134
 30
0.0
 10
0.2908599999999998
 20
4.9098499999999996
 30
0.0
 10
1.2320499999999996
 20
4.9098500000265002
 30
0.0
 10
1.2320499999999996
 20
4.8859899999999987
 30
0.0
 10
1.2458159812847744
 20
4.8527559812847736
 30
0.0
 10
1.2490270635957055
 20
4.8514259074416159
 30
0.0
 10
1.2532737285480968
 20
4.8427800000000003
 30
0.0
 10
1.2320499999999996
 20
4.7995700000000001
 30
0.0
 10
1.2320499999999996
 20
4.7796399999999997
 30
0.0
 10
0.2908599999999998
 20
4.7796399999999997
 30
0.0
 10
0.2322206919883145
 20
4.7519093080116859
 30
0.0
 10
0.2044899999999999
 20
4.6932700000000001
 30
0.0
 10
0.2044899999999999
 20
2.5712199999999998
 30
0.0
 10
0.2322206919883143
 20
2.5125806919883145
 30
0.0
 10
0.2908599999999998
 20
2.4848500000000007
 30
0.0
 10
1.2320499999999996
 20
2.4848500000265012
 30
0.0
 10
1.2320499999999996
 20
2.4609900000000002
 30
0.0
 10
1.2458159812847744
 20
2.4277559812847751
 30
0.0
 10
1.2490270635957055
 20
2.4264259074416175
 30
0.0
 10
1.2535193167053307
 20
2.4172799999999999
 30
0.0
 10
1.2320499999999996
 20
2.3735699999999995
 30
0.0
 10
1.2320499999999996
 20
2.3536399999999991
 30
0.0
 10
0.2908599999999998
 20
2.3536399999999991
 30
0.0
 10
0.2322206919883145
 20
2.3259093080116853
 30
0.0
 10
0.2044899999999999
 20
2.2672699999999995
 30
0.0
 10
0.2044899999999999
 20
0.1452199999999993
 30
0.0
 10
0.2322206919883143
 20
0.0865806919883139
 30
0.0
 10
0.2908599999999998
 20
0.0588499999999998
 30
0.0
 10
1.2320499999999996
 20
0.0588500000265008
 30
0.0
 10
1.2320499999999996
 20
0.0349899999999993
 30
0.0
 10
1.2458159812847744
 20
0.0017559812847744
 30
0.0
 10
1.2490270635957055
 20
0.0004259074416166
 30
0.0
 10
1.2492362592431812
 20
-0.0
 30
0.0
 10
0.078740157480315
 20
-0.0
 30
0.0
 10
0.0230624581751968
 20
0.0230624581751968
 30
0.0
 10
0.0
 20
0.078740157480315
 30
0.0
 10
0.0
 20
9.6062598425196839
 30
0.0
  0
LWPOLYLINE
  5
46
100
AcDbEntity
  8
mainlayer
 62
256
370
-1
 48
1.0
  6
BYLAYER
100
AcDbPolyline
 90
25
 70
1
 10
6.3782598425196841
 20
9.6850000000000005
 30
0.0
 10
6.4339375418248013
 20
9.6619375418248037
 30
0.0
 10
6.456999999999999
 20
9.6062598425196839
 30
0.0
 10
6.456999999999999
 20
0.078740157480315
 30
0.0
 10
6.4339375418248013
 20
0.0230624581751968
 30
0.0
 10
6.3782598425196841
 20
-0.0
 30
0.0
 10
6.2253864048194592
 20
-0.0
 30
0.0
 10
6.2512400000000001
 20
0.0546699999999998
 30
0.0
 10
6.2512400000000001
 20
2.3538799999999993
 30
0.0
 10
6.2235093080116863
 20
2.4125193080116847
 30
0.0
 10
6.2134529240083927
 20
2.4172749999999996
 30
0.0
 10
6.2235093080116863
 20
2.422030691988315
 30
0.0
 10
6.2512400000000001
 20
2.4806700000000004
 30
0.0
 10
6.2512400000000001
 20
4.7798800000000004
 30
0.0
 10
6.2235093080116863
 20
4.8385193080116853
 30
0.0
 10
6.2145102237691878
 20
4.8427749999999996
 30
0.0
 10
6.2235093080116863
 20
4.8470306919883139
 30
0.0
 10
6.2512400000000001
 20
4.9056699999999989
 30
0.0
 10
6.2512400000000001
 20
7.2048799999999984
 30
0.0
 10
6.2235093080116863
 20
7.2635193080116842
 30
0.0
 10
6.2145102237691852
 20
7.2677749999999994
 30
0.0
 10
6.2235093080116863
 20
7.2720306919883146
 30
0.0
 10
6.2512400000000001
 20
7.3306700000000005
 30
0.0
 10
6.2512400000000001
 20
9.62988
 30
0.0
 10
6.2251735985668306
 20
9.6850000000000005
 30
0.0
  0
LWPOLYLINE
  5
47
100
AcDbEntity
  8
mainlayer
 62
256
370
-1
 48
1.0
  6
BYLAYER
100
AcDbPolyline
 90
16
 70
1
 10
4.7512399999999992
 20
7.3306700000000005
 30
0.0
 10
4.7235093080116854
 20
7.2720306919883146
 30
0.0
 10
4.7145102237691852
 20
7.2677749999999994
 30
0.0
 10
4.7235093080116854
 20
7.2635193080116842
 30
0.0
 10
4.7512399999999992
 20
7.2048799999999984
 30
0.0
 10
4.7512399999999992
 20
7.1859035917129486
 30
0.0
 10
4.7908599999999995
 20
7.2046399999999995
 30
0.0
 10
5.7320499999999992
 20
7.2046399999999995
 30
0.0
 10
5.7320499999999992
 20
7.2245699999999982
 30
0.0
 10
5.7532737285480975
 20
7.2677799999999992
 30
0.0
 10
5.7490270635957055
 20
7.2764259074416175
 30
0.0
 10
5.7458159812847747
 20
7.2777559812847752
 30
0.0
 10
5.7320499999999992
 20
7.3109899999999994
 30
0.0
 10
5.7320499999999992
 20
7.3348500000265009
 30
0.0
 10
4.7908599999999995
 20
7.3348500000000003
 30
0.0
 10
4.7512399999999992
 20
7.3535864082870503
 30
0.0
  0
LWPOLYLINE
  5
48
100
AcDbEntity
  8
mainlayer
 62
256
370
-1
 48
1.0
  6
BYLAYER
100
AcDbPolyline
 90
16
 70
1
 10
4.7512399999999992
 20
4.9056699999999989
 30
0.0
 10
4.7235093080116854
 20
4.8470306919883139
 30
0.0
 10
4.7145102237691869
 20
4.8427749999999996
 30
0.0
 10
4.7235093080116854
 20
4.8385193080116853
 30
0.0
 10
4.7512399999999992
 20
4.7798800000000004
 30
0.0
 10
4.7512399999999992
 20
4.7609035917129496
 30
0.0
 10
4.7908599999999995
 20
4.7796399999999997
 30
0.0
 10
5.7320499999999992
 20
4.7796399999999997
 30
0.0
 10
5.7320499999999992
 20
4.7995700000000001
 30
0.0
 10
5.7532737285480966
 20
4.8427799999999994
 30
0.0
 10
5.7490270635957055
 20
4.8514259074416159
 30
0.0
 10
5.7458159812847747
 20
4.8527559812847736
 30
0.0
 10
5.7320499999999992
 20
4.8859899999999987
 30
0.0
 10
5.7320499999999992
 20
4.9098500000265002
 30
0.0
 10
4.7908599999999995
 20
4.9098499999999996
 30
0.0
 10
4.7512399999999992
 20
4.9285864082870496
 30
0.0
  0
LWPOLYLINE
  5
49
100
AcDbEntity
  8
mainlayer
 62
256
370
-1
 48
1.0
  6
BYLAYER
100
AcDbPolyline
 90
16
 70
1
 10
4.7512399999999992
 20
2.4806700000000004
 30
0.0
 10
4.7235093080116854
 20
2.422030691988315
 30
0.0
 10
4.7134529240083927
 20
2.4172749999999996
 30
0.0
 10
4.7235093080116854
 20
2.4125193080116847
 30
0.0
 10
4.7512399999999992
 20
2.3538799999999993
 30
0.0
 10
4.7512399999999992
 20
2.3349035917129495
 30
0.0
 10
4.7908599999999995
 20
2.3536399999999991
 30
0.0
 10
5.7320499999999992
 20
2.3536399999999991
 30
0.0
 10
5.7320499999999992
 20
2.3735699999999995
 30
0.0
 10
5.7535193167053302
 20
2.4172799999999999
 30
0.0
 10
5.7490270635957055
 20
2.4264259074416175
 30
0.0
 10
5.7458159812847747
 20
2.4277559812847751
 30
0.0
 10
5.7320499999999992
 20
2.4609900000000002
 30
0.0
 10
5.7320499999999992
 20
2.4848500000265012
 30
0.0
 10
4.7908599999999995
 20
2.4848500000000007
 30
0.0
 10
4.7512399999999992
 20
2.5035864082870507
 30
0.0
  0
LWPOLYLINE
  5
4A
100
AcDbEntity
  8
mainlayer
 62
256
370
-1
 48
1.0
  6
BYLAYER
100
AcDbPolyline
 90
16
 70
1
 10
3.2512399999999992
 20
7.3306700000000005
 30
0.0
 10
3.2235093080116854
 20
7.2720306919883146
 30
0.0
 10
3.2145102237691852
 20
7.2677749999999994
 30
0.0
 10
3.2235093080116854
 20
7.2635193080116842
 30
0.0
 10
3.2512399999999992
 20
7.2048799999999984
 30
0.0
 10
3.2512399999999992
 20
7.1859035917129486
 30
0.0
 10
3.2908599999999995
 20
7.2046399999999995
 30
0.0
 10
4.2320500000000001
 20
7.2046399999999995
 30
0.0
 10
4.2320500000000001
 20
7.2245699999999982
 30
0.0
 10
4.2532737285480975
 20
7.267780000000001
 30
0.0
 10
4.2490270635957055
 20
7.2764259074416175
 30
0.0
 10
4.2458159812847747
 20
7.2777559812847752
 30
0.0
 10
4.2320500000000001
 20
7.3109899999999994
 30
0.0
 10
4.2320500000000001
 20
7.3348500000265009
 30
0.0
 10
3.2908599999999995
 20
7.3348500000000003
 30
0.0
 10
3.2512399999999992
 20
7.3535864082870495
 30
0.0
  0
LWPOLYLINE
  5
4B
100
AcDbEntity
  8
mainlayer
 62
256
370
-1
 48
1.0
  6
BYLAYER
100
AcDbPolyline
 90
16
 70
1
 10
3.2512399999999992
 20
4.9056699999999989
 30
0.0
 10
3.2235093080116854
 20
4.8470306919883139
 30
0.0
 10
3.2145102237691869
 20
4.8427749999999996
 30
0.0
 10
3.2235093080116854
 20
4.8385193080116853
 30
0.0
 10
3.2512399999999992
 20
4.7798800000000004
 30
0.0
 10
3.2512399999999992
 20
4.7609035917129496
 30
0.0
 10
3.2908599999999995
 20
4.7796399999999997
 30
0.0
 10
4.2320500000000001
 20
4.7796399999999997
 30
0.0
 10
4.2320500000000001
 20
4.7995700000000001
 30
0.0
 10
4.2532737285480966
 20
4.8427800000000003
 30
0.0
 10
4.2490270635957055
 20
4.8514259074416159
 30
0.0
 10
4.2458159812847747
 20
4.8527559812847736
 30
0.0
 10
4.2320500000000001
 20
4.8859899999999987
 30
0.0
 10
4.2320500000000001
 20
4.9098500000265002
 30
0.0
 10
3.2908599999999995
 20
4.9098499999999996
 30
0.0
 10
3.2512399999999992
 20
4.9285864082870496
 30
0.0
  0
LWPOLYLINE
  5
4C
100
AcDbEntity
  8
mainlayer
 62
256
370
-1
 48
1.0
  6
BYLAYER
100
AcDbPolyline
 90
16
 70
1
 10
3.2512399999999992
 20
2.4806700000000004
 30
0.0
 10
3.2235093080116854
 20
2.422030691988315
 30
0.0
 10
3.2134529240083927
 20
2.4172749999999996
 30
0.0
 10
3.2235093080116854
 20
2.4125193080116847
 30
0.0
 10
3.2512399999999992
 20
2.3538799999999993
 30
0.0
 10
3.2512399999999992
 20
2.3349035917129495
 30
0.0
 10
3.2908599999999995
 20
2.3536399999999991
 30
0.0
 10
4.2320500000000001
 20
2.3536399999999991
 30
0.0
 10
4.2320500000000001
 20
2.3735699999999995
 30
0.0
 10
4.2535193167053302
 20
2.4172799999999999
 30
0.0
 10
4.2490270635957055
 20
2.4264259074416175
 30
0.0
 10
4.2458159812847747
 20
2.4277559812847751
 30
0.0
 10
4.2320500000000001
 20
2.4609900000000002
 30
0.0
 10
4.2320500000000001
 20
2.4848500000265012
 30
0.0
 10
3.2908599999999995
 20
2.4848500000000007
 30
0.0
 10
3.2512399999999992
 20
2.5035864082870503
 30
0.0
  0
LWPOLYLINE
  5
4D
100
AcDbEntity
  8
mainlayer
 62
256
370
-1
 48
1.0
  6
BYLAYER
100
AcDbPolyline
 90
16
 70
1
 10
1.7512399999999997
 20
7.3306700000000005
 30
0.0
 10
1.7235093080116852
 20
7.2720306919883146
 30
0.0
 10
1.7145102237691849
 20
7.2677749999999994
 30
0.0
 10
1.7235093080116852
 20
7.2635193080116842
 30
0.0
 10
1.7512399999999997
 20
7.2048799999999984
 30
0.0
 10
1.7512399999999997
 20
7.1859035917129486
 30
0.0
 10
1.7908599999999999
 20
7.2046399999999995
 30
0.0
 10
2.7320500000000001
 20
7.2046399999999995
 30
0.0
 10
2.7320500000000001
 20
7.2245699999999982
 30
0.0
 10
2.7532737285480979
 20
7.267780000000001
 30
0.0
 10
2.7490270635957055
 20
7.2764259074416175
 30
0.0
 10
2.7458159812847747
 20
7.2777559812847752
 30
0.0
 10
2.7320500000000001
 20
7.3109899999999994
 30
0.0
 10
2.7320500000000001
 20
7.3348500000265009
 30
0.0
 10
1.7908599999999999
 20
7.3348500000000003
 30
0.0
 10
1.7512399999999997
 20
7.3535864082870503
 30
0.0
  0
LWPOLYLINE
  5
4E
100
AcDbEntity
  8
mainlayer
 62
256
370
-1
 48
1.0
  6
BYLAYER
100
AcDbPolyline
 90
16
 70
1
 10
1.7512399999999997
 20
4.9056699999999989
 30
0.0
 10
1.7235093080116852
 20
4.8470306919883139
 30
0.0
 10
1.7145102237691867
 20
4.8427749999999996
 30
0.0
 10
1.7235093080116852
 20
4.8385193080116853
 30
0.0
 10
1.7512399999999997
 20
4.7798800000000004
 30
0.0
 10
1.7512399999999997
 20
4.7609035917129496
 30
0.0
 10
1.7908599999999999
 20
4.7796399999999997
 30
0.0
 10
2.7320500000000001
 20
4.7796399999999997
 30
0.0
 10
2.7320500000000001
 20
4.7995700000000001
 30
0.0
 10
2.7532737285480966
 20
4.8427800000000003
 30
0.0
 10
2.7490270635957055
 20
4.8514259074416159
 30
0.0
 10
2.7458159812847747
 20
4.8527559812847736
 30
0.0
 10
2.7320500000000001
 20
4.8859899999999987
 30
0.0
 10
2.7320500000000001
 20
4.9098500000265002
 30
0.0
 10
1.7908599999999999
 20
4.9098499999999996
 30
0.0
 10
1.7512399999999997
 20
4.9285864082870496
 30
0.0
  0
LWPOLYLINE
  5
4F
100
AcDbEntity
  8
mainlayer
 62
256
370
-1
 48
1.0
  6
BYLAYER
100
AcDbPolyline
 90
16
 70
1
 10
1.7512399999999997
 20
2.4806700000000004
 30
0.0
 10
1.7235093080116852
 20
2.422030691988315
 30
0.0
 10
1.7134529240083924
 20
2.4172749999999996
 30
0.0
 10
1.7235093080116852
 20
2.4125193080116847
 30
0.0
 10
1.7512399999999997
 20
2.3538799999999993
 30
0.0
 10
1.7512399999999997
 20
2.3349035917129495
 30
0.0
 10
1.7908599999999999
 20
2.3536399999999991
 30
0.0
 10
2.7320500000000001
 20
2.3536399999999991
 30
0.0
 10
2.7320500000000001
 20
2.3735699999999995
 30
0.0
 10
2.7535193167053307
 20
2.4172799999999999
 30
0.0
 10
2.7490270635957055
 20
2.4264259074416175
 30
0.0
 10
2.7458159812847747
 20
2.4277559812847751
 30
0.0
 10
2.7320500000000001
 20
2.4609900000000002
 30
0.0
 10
2.7320500000000001
 20
2.4848500000265012
 30
0.0
 10
1.7908599999999999
 20
2.4848500000000007
 30
0.0
 10
1.7512399999999997
 20
2.5035864082870503
 30
0.0
  0
ENDSEC
  0
SECTION
  2
OBJECTS
  0
DICTIONARY
  5
C
100
AcDbDictionary
280
0
281
1
  3
ACAD_GROUP
350
D
  3
ACAD_LAYOUT
350
1A
  3
ACAD_MLINESTYLE
350
17
  3
ACAD_PLOTSETTINGS
350
19
  3
ACAD_PLOTSTYLENAME
350
E
  3
AcDbVariableDictionary
350
50
  0
DICTIONARY
  5
D
100
AcDbDictionary
280
0
281
1
  0
ACDBDICTIONARYWDFLT
  5
E
100
AcDbDictionary
281
1
  3
Normal
350
F
100
AcDbDictionaryWithDefault
340
F
  0
ACDBPLACEHOLDER
  5
F
  0
DICTIONARY
  5
17
100
AcDbDictionary
280
0
281
1
  3
Standard
350
18
  0
MLINESTYLE
  5
18
100
AcDbMlineStyle
  2
STANDARD
 70
0
  3

 62
256
 51
90.0
 52
90.0
 71
2
 49
0.5
 62
256
  6
BYLAYER
 49
-0.5
 62
256
  6
BYLAYER
  0
DICTIONARY
  5
19
100
AcDbDictionary
280
0
281
1
  0
DICTIONARY
  5
1A
100
AcDbDictionary
281
1
  3
Layout1
350
1E
  3
Layout2
350
26
  3
Model
350
22
  0
LAYOUT
  5
1E
100
AcDbPlotSettings
  1

  2
none_device
  4

  6

 40
0.0
 41
0.0
 42
0.0
 43
0.0
 44
0.0
 45
0.0
 46
0.0
 47
0.0
 48
0.0
 49
0.0
140
0.0
141
0.0
142
1.0
143
1.0
 70
688
 72
0
 73
0
 74
5
  7

 75
16
147
1.0
148
0.0
149
0.0
100
AcDbLayout
  1
Layout1
 70
1
 71
1
 10
0.0
 20
0.0
 11
420.0
 21
297.0
 12
0.0
 22
0.0
 32
0.0
 14
100000000000000000000.0
 24
100000000000000000000.0
 34
100000000000000000000.0
 15
-100000000000000000000.0
 25
-100000000000000000000.0
 35
-100000000000000000000.0
146
0.0
 13
0.0
 23
0.0
 33
0.0
 16
1.0
 26
0.0
 36
0.0
 17
0.0
 27
1.0
 37
0.0
 76
0
330
1B
  0
LAYOUT
  5
22
100
AcDbPlotSettings
  1

  2
none_device
  4

  6

 40
0.0
 41
0.0
 42
0.0
 43
0.0
 44
0.0
 45
0.0
 46
0.0
 47
0.0
 48
0.0
 49
0.0
140
0.0
141
0.0
142
1.0
143
1.0
 70
1712
 72
0
 73
0
 74
0
  7

 75
0
147
1.0
148
0.0
149
0.0
100
AcDbLayout
  1
Model
 70
1
 71
0
 10
0.0
 20
0.0
 11
12.0
 21
9.0
 12
0.0
 22
0.0
 32
0.0
 14
0.0
 24
0.0
 34
0.0
 15
0.0
 25
0.0
 35
0.0
146
0.0
 13
0.0
 23
0.0
 33
0.0
 16
1.0
 26
0.0
 36
0.0
 17
0.0
 27
1.0
 37
0.0
 76
0
330
1F
  0
LAYOUT
  5
26
100
AcDbPlotSettings
  1

  2
none_device
  4

  6

 40
0.0
 41
0.0
 42
0.0
 43
0.0
 44
0.0
 45
0.0
 46
0.0
 47
0.0
 48
0.0
 49
0.0
140
0.0
141
0.0
142
1.0
143
1.0
 70
688
 72
0
 73
0
 74
5
  7

 75
16
147
1.0
148
0.0
149
0.0
100
AcDbLayout
  1
Layout2
 70
1
 71
2
 10
0.0
 20
0.0
 11
12.0
 21
9.0
 12
0.0
 22
0.0
 32
0.0
 14
0.0
 24
0.0
 34
0.0
 15
0.0
 25
0.0
 35
0.0
146
0.0
 13
0.0
 23
0.0
 33
0.0
 16
1.0
 26
0.0
 36
0.0
 17
0.0
 27
1.0
 37
0.0
 76
0
330
23
  0
DICTIONARY
  5
50
100
AcDbDictionary
281
1
  3
DIMASSOC
350
52
  3
HIDETEXT
350
51
  0
DICTIONARYVAR
  5
51
100
DictionaryVariables
280
0
  1
2
  0
DICTIONARYVAR
  5
52
100
DictionaryVariables
280
0
  1
1
  0
ENDSEC
  0
EOF
